<svg width="20" height="18" viewBox="0 0 20 18" fill="none" xmlns="http://www.w3.org/2000/svg">
<path d="M10.3029 0.904071L17.6665 3.8495C17.9529 3.96405 18.182 4.30768 18.182 4.61041V7.32681C18.182 7.77681 17.8138 8.14499 17.3638 8.14499H2.63654C2.18654 8.14499 1.81836 7.77681 1.81836 7.32681V4.61041C1.81836 4.30768 2.04745 3.96405 2.33381 3.8495L9.69745 0.904071C9.86109 0.838617 10.1393 0.838617 10.3029 0.904071Z" stroke="#EBEEF5" stroke-miterlimit="10" stroke-linecap="round" stroke-linejoin="round"/>
<path d="M18.182 17.1448H1.81836V14.6903C1.81836 14.2403 2.18654 13.8721 2.63654 13.8721H17.3638C17.8138 13.8721 18.182 14.2403 18.182 14.6903V17.1448Z" stroke="#EBEEF5" stroke-miterlimit="10" stroke-linecap="round" stroke-linejoin="round"/>
<path d="M3.4541 13.8723V8.14502" stroke="#EBEEF5" stroke-miterlimit="10" stroke-linecap="round" stroke-linejoin="round"/>
<path d="M6.72754 13.8723V8.14502" stroke="#EBEEF5" stroke-miterlimit="10" stroke-linecap="round" stroke-linejoin="round"/>
<path d="M10 13.8723V8.14502" stroke="#EBEEF5" stroke-miterlimit="10" stroke-linecap="round" stroke-linejoin="round"/>
<path d="M13.2725 13.8723V8.14502" stroke="#EBEEF5" stroke-miterlimit="10" stroke-linecap="round" stroke-linejoin="round"/>
<path d="M16.5459 13.8723V8.14502" stroke="#EBEEF5" stroke-miterlimit="10" stroke-linecap="round" stroke-linejoin="round"/>
<path d="M1 17.145H19" stroke="#EBEEF5" stroke-miterlimit="10" stroke-linecap="round" stroke-linejoin="round"/>
<path d="M9.99973 6.09956C10.6775 6.09956 11.227 5.5501 11.227 4.87229C11.227 4.19449 10.6775 3.64502 9.99973 3.64502C9.32195 3.64502 8.77246 4.19449 8.77246 4.87229C8.77246 5.5501 9.32195 6.09956 9.99973 6.09956Z" stroke="#EBEEF5" stroke-miterlimit="10" stroke-linecap="round" stroke-linejoin="round"/>
</svg>
