<svg width="48" height="48" viewBox="0 0 48 48" fill="none" xmlns="http://www.w3.org/2000/svg">
<rect width="48" height="48" rx="6" fill="white"/>
<path d="M38.9295 14.4814C35.3305 12.404 30.7286 13.6382 28.6497 17.2372L23.4065 26.3184C21.8896 28.9404 23.8427 29.8571 26.0197 31.1626L31.0642 34.0743C32.7727 35.06 34.9545 34.4749 35.9393 32.7689L41.3282 23.4359C43.1395 20.3001 42.0653 16.2919 38.9295 14.4814Z" fill="#E64A19"/>
<path d="M32.9971 18.2409L27.9525 15.3292C25.1683 13.7831 23.5913 13.6809 22.4473 15.4986L15.0072 28.383C12.9299 31.9795 14.1665 36.5791 17.763 38.6517C20.8988 40.4622 24.907 39.3879 26.7176 36.2521L34.3001 23.1184C35.2897 21.4108 34.7055 19.2266 32.9971 18.2409Z" fill="#FBC02D"/>
<path d="M33.9681 11.6142L30.4246 9.56771C26.5059 7.30592 21.4946 8.647 19.2328 12.5658L12.487 24.25C11.4903 25.9734 12.0825 28.1798 13.8059 29.1741L17.7738 31.4652C19.7332 32.5973 22.238 31.926 23.3701 29.9658L31.0769 16.6183C32.6737 13.8538 36.2077 12.9062 38.973 14.503L33.9681 11.6142Z" fill="#43A047"/>
<path d="M20.1914 15.9108L16.3614 13.7044C14.6529 12.7211 12.4711 13.3038 11.4863 15.0075L6.89144 22.9479C4.62965 26.8556 5.97073 31.8557 9.88948 34.1112L12.8052 35.7903L16.3416 37.8273L17.8766 38.71C15.1517 36.886 14.2864 33.2316 15.9529 30.3539L17.1427 28.2988L21.5001 20.77C22.4825 19.0719 21.8975 16.894 20.1914 15.9108Z" fill="#1E88E5"/>
</svg>
