<svg width="49" height="48" viewBox="0 0 49 48" fill="none" xmlns="http://www.w3.org/2000/svg">
<rect x="0.5" width="48" height="48" rx="6" fill="white"/>
<g clip-path="url(#clip0_615_7518)">
<path d="M43.3699 21.5389C43.0144 20.5452 42.0496 19.8318 40.9197 19.8318H40.8943C40.158 19.8318 39.4946 20.134 39.0217 20.6168C38.5488 20.134 37.8855 19.8318 37.1492 19.8318H37.127C36.4795 19.8318 35.886 20.0654 35.4321 20.4486V20.2555C35.4163 20.0592 35.2544 19.9065 35.0513 19.9065H33.312C33.0994 19.9065 32.928 20.0748 32.928 20.2835V29.5483C32.928 29.757 33.0994 29.9252 33.312 29.9252H35.0513C35.2449 29.9252 35.4067 29.7819 35.429 29.6012V22.9502C35.429 22.9252 35.429 22.9065 35.4321 22.8847C35.4607 22.5888 35.6829 22.3427 36.032 22.3146H36.3525C36.4985 22.3271 36.6223 22.3769 36.7175 22.4548C36.8699 22.5732 36.9524 22.7539 36.9524 22.9533L36.9587 29.5701C36.9587 29.7788 37.1301 29.9502 37.3428 29.9502H39.082C39.2883 29.9502 39.4534 29.7913 39.4629 29.5919V22.947C39.4629 22.729 39.5645 22.5296 39.7454 22.4143C39.8342 22.3583 39.9421 22.3209 40.0659 22.3084H40.3865C40.7642 22.3396 40.9895 22.6199 40.9895 22.947L40.9958 29.5576C40.9958 29.7664 41.1672 29.9346 41.3799 29.9346H43.1191C43.3223 29.9346 43.4905 29.7788 43.5032 29.5826V22.3333C43.4937 21.9252 43.4397 21.7352 43.3699 21.5389ZM31.6013 19.9315H30.6079V18.3489C30.6079 18.3458 30.6079 18.3458 30.6079 18.3427C30.6079 18.1558 30.4524 18 30.2556 18C30.2334 18 30.2112 18.0031 30.189 18.0062C29.0876 18.3022 29.3066 19.8006 27.2944 19.9283H27.1008C27.0723 19.9283 27.0437 19.9315 27.0151 19.9377C26.8469 19.9782 26.7168 20.1277 26.7168 20.3084V22.0156C26.7168 22.2243 26.8882 22.3925 27.1008 22.3925H28.1482L28.145 29.6262C28.145 29.8318 28.3164 30 28.5259 30H30.2461C30.4556 30 30.627 29.8318 30.627 29.6262V22.3925H31.6013C31.8108 22.3925 31.9854 22.2212 31.9854 22.0156V20.3084C31.9854 20.0997 31.814 19.9315 31.6013 19.9315Z" fill="#00BAF2"/>
<path d="M25.3489 19.9313H23.6096C23.4001 19.9313 23.2256 20.0996 23.2256 20.3083V23.8379C23.2224 24.0559 23.0415 24.2304 22.8193 24.2304H22.0925C21.8672 24.2304 21.6831 24.0528 21.6831 23.8316L21.6768 20.3083C21.6768 20.0996 21.5054 19.9313 21.2927 19.9313H19.5535C19.3408 19.9313 19.1694 20.0996 19.1694 20.3083V24.1743C19.1694 25.6416 20.2358 26.6915 21.7339 26.6915C21.7339 26.6915 22.8574 26.6915 22.8923 26.6977C23.0955 26.7195 23.251 26.8877 23.251 27.0933C23.251 27.2958 23.0986 27.464 22.8955 27.489C22.886 27.489 22.8765 27.4921 22.8669 27.4952L20.3247 27.5045C20.1121 27.5045 19.9407 27.6728 19.9407 27.8815V29.5855C19.9407 29.7943 20.1121 29.9625 20.3247 29.9625H23.1653C24.6633 29.9625 25.7297 28.9158 25.7297 27.4485V20.3083C25.7329 20.0996 25.5615 19.9313 25.3489 19.9313ZM15.4592 19.9407H13.0471C12.8345 19.9407 12.6599 20.0996 12.6599 20.2927V20.9563C12.6599 20.9594 12.6599 20.9656 12.6599 20.9687C12.6599 20.975 12.6599 20.9781 12.6599 20.9843V21.894C12.6599 22.0996 12.844 22.2709 13.0693 22.2709H15.3672C15.5481 22.2989 15.6909 22.4298 15.7131 22.6323V22.8535C15.6941 23.0466 15.5513 23.1868 15.3767 23.2024H14.2405C12.7266 23.2024 11.6506 24.1899 11.6506 25.5731V27.5575C11.6506 28.9345 12.5774 29.9126 14.0786 29.9126H17.2302C17.7952 29.9126 18.2554 29.4921 18.2554 28.975V22.5014C18.2554 20.9313 17.4302 19.9407 15.4592 19.9407ZM15.7354 27.0622V27.3301C15.7354 27.3519 15.7322 27.3737 15.729 27.3924C15.7258 27.4111 15.7195 27.4298 15.7131 27.4485C15.6592 27.598 15.5068 27.707 15.3259 27.707H14.6023C14.377 27.707 14.1929 27.5388 14.1929 27.3301V27.0092C14.1929 27.0061 14.1929 26.9999 14.1929 26.9968V26.1401V25.8721V25.869C14.1929 25.6634 14.377 25.4952 14.6023 25.4952H15.3259C15.5513 25.4952 15.7354 25.6634 15.7354 25.8721V27.0622ZM8.67676 19.9282H4.87769C4.66821 19.9282 4.5 20.0964 4.5 20.2989V21.9718C4.5 21.975 4.5 21.9781 4.5 21.9812C4.5 21.9905 4.5 21.9968 4.5 22.003V29.57C4.5 29.7756 4.65552 29.9438 4.85229 29.9469H6.62329C6.83594 29.9469 7.00732 29.7787 7.00732 29.57L7.01367 26.9781H8.67676C10.0669 26.9781 11.0381 26.031 11.0381 24.6572V22.2522C11.0381 20.8815 10.0669 19.9282 8.67676 19.9282ZM8.52441 23.0559V24.1089C8.52441 24.3301 8.34351 24.5108 8.11816 24.5108H7.01685V22.4017H8.11816C8.34351 22.4017 8.52441 22.5793 8.52441 22.8005V23.0559Z" fill="#20336B"/>
</g>
<defs>
<clipPath id="clip0_615_7518">
<rect width="39" height="12" fill="white" transform="translate(4.5 18)"/>
</clipPath>
</defs>
</svg>
