<svg width="49" height="48" viewBox="0 0 49 48" fill="none" xmlns="http://www.w3.org/2000/svg">
<g clip-path="url(#clip0_615_6741)">
<path d="M48.5 41.3333C48.5 45.016 45.516 48 41.8333 48H7.16667C3.48533 48 0.5 45.016 0.5 41.3333V6.66667C0.5 2.984 3.48533 0 7.16667 0H41.8333C45.516 0 48.5 2.984 48.5 6.66667V41.3333Z" fill="#4527A0"/>
<path d="M35.5 18.8944C35.5 17.9864 34.723 17.2091 33.8182 17.2091H30.7128L23.5946 8.87563C22.948 8.09696 21.9128 7.83829 20.8764 8.09696L18.4176 8.87563C18.0291 9.00497 17.9 9.52364 18.1581 9.78365L25.923 17.3384H14.1466C13.7581 17.3384 13.5 17.5984 13.5 17.9864V19.2838C13.5 20.1918 14.277 21.2918 15.1818 21.2918H17.8055V27.0318C17.8055 31.7012 19.949 34.4239 24.0895 34.4239C25.3841 34.4239 25.923 34.2946 27.2162 33.7759V37.9253C27.2162 39.092 28.1223 40 29.2865 40H30.3323C30.7208 40 31.1093 39.6107 31.1093 39.2213V21.2918H34.8507C35.2392 21.2918 35.4973 21.0318 35.4973 20.6438V18.8944H35.5ZM27.2189 29.8839C26.4419 30.2732 25.4067 30.4026 24.6311 30.4026C22.5608 30.4026 21.841 29.3652 21.841 27.0305V21.2904H27.2202V29.8839H27.2189Z" fill="white"/>
</g>
<defs>
<clipPath id="clip0_615_6741">
<rect width="48" height="48" fill="white" transform="translate(0.5)"/>
</clipPath>
</defs>
</svg>
