<svg width="23" height="35" viewBox="0 0 23 35" fill="none" xmlns="http://www.w3.org/2000/svg">
<g clip-path="url(#clip0_1125_9452)">
<path d="M7.06716 11.2187C2.72327 15.1312 1.00324 22.2324 3.8717 28.1441C3.81677 28.1723 3.76314 28.2005 3.7082 28.2287C3.2177 27.1881 2.63433 26.1825 2.25108 25.1017C0.323078 19.6626 1.84691 15.0668 5.65844 11.0939C7.1705 9.51761 8.92192 8.27835 10.9624 7.50902C11.0841 7.46337 11.2057 7.41101 11.3287 7.37073C11.4097 7.34522 11.4961 7.33716 11.7276 7.29285C11.5628 7.57615 11.4568 7.77486 11.3378 7.96283C9.37187 11.0563 7.78264 14.3176 7.15349 17.9964C6.39092 22.4473 6.71923 26.7276 9.07626 30.6817C9.21229 30.9099 9.33786 31.1785 9.5393 31.3221C9.73157 31.4591 10.0717 31.5786 10.2561 31.4953C13.3103 30.1151 15.8125 28.0823 17.3442 24.9607C18.7294 22.1358 18.9687 19.1282 18.4547 16.0697C17.8294 12.3479 16.3919 8.97653 13.963 6.09522C11.5314 3.20451 8.41049 1.52889 4.81085 0.791779C3.11175 0.444035 1.3721 0.301715 0 0.115087C1.41134 -0.130616 3.18631 0.0519832 4.9495 0.321854C9.62563 1.03748 13.5928 3.14677 16.6902 6.84844C18.9923 9.59817 20.6116 12.7158 20.9987 16.3691C21.3598 19.7727 20.4507 22.8809 18.5868 25.6938C16.8314 28.3415 14.5202 30.3299 11.687 31.6779C11.4804 31.7759 11.2789 31.886 10.9873 32.0364C14.8302 34.2625 18.8222 34.5888 23 33.9336C22.6782 34.0463 22.3591 34.1672 22.0347 34.2706C21.7025 34.3766 21.3676 34.4814 21.0288 34.5579C17.0773 35.44 13.3207 35.0318 9.68579 33.0716C8.1515 32.2445 7.28952 30.9516 6.56881 29.519C3.51069 23.4395 3.74613 17.4016 6.96121 11.4497C7.00176 11.3745 7.03185 11.2953 7.06716 11.2187Z" fill="white"/>
</g>
<defs>
<clipPath id="clip0_1125_9452">
<rect width="23" height="35" fill="white"/>
</clipPath>
</defs>
</svg>
