<svg width="24" height="24" viewBox="0 0 24 24" fill="none" xmlns="http://www.w3.org/2000/svg">
<path d="M12.1197 12.7805C12.0497 12.7705 11.9597 12.7705 11.8797 12.7805C10.1197 12.7205 8.71973 11.2805 8.71973 9.51045C8.71973 7.70046 10.1797 6.23047 11.9997 6.23047C13.8097 6.23047 15.2797 7.70046 15.2797 9.51045C15.2697 11.2805 13.8797 12.7205 12.1197 12.7805Z" stroke="#1DB954" stroke-width="1.5" stroke-linecap="round" stroke-linejoin="round"/>
<path d="M18.7397 19.3786C16.9597 21.0086 14.5997 21.9986 11.9997 21.9986C9.39974 21.9986 7.03976 21.0086 5.25977 19.3786C5.35977 18.4386 5.95976 17.5186 7.02976 16.7986C9.76974 14.9786 14.2497 14.9786 16.9697 16.7986C18.0397 17.5186 18.6397 18.4386 18.7397 19.3786Z" stroke="#1DB954" stroke-width="1.5" stroke-linecap="round" stroke-linejoin="round"/>
<path d="M11.9999 21.9999C17.5227 21.9999 21.9999 17.5227 21.9999 11.9999C21.9999 6.47713 17.5227 2 11.9999 2C6.47713 2 2 6.47713 2 11.9999C2 17.5227 6.47713 21.9999 11.9999 21.9999Z" stroke="#1DB954" stroke-width="1.5" stroke-linecap="round" stroke-linejoin="round"/>
</svg>
