<svg width="56" height="56" viewBox="0 0 56 56" fill="none" xmlns="http://www.w3.org/2000/svg">
<rect x="1.12109" y="0.5" width="54.2" height="54.9997" rx="27.1" fill="#F5F7FA"/>
<rect x="1.12109" y="0.5" width="54.2" height="54.9997" rx="27.1" stroke="#D1D5DB"/>
<path fill-rule="evenodd" clip-rule="evenodd" d="M33.1345 17.1086C34.301 15.7566 35.0873 13.8736 34.8722 12C33.1911 12.064 31.1574 13.0738 29.9521 14.4242C28.8697 15.6226 27.9248 17.5374 28.1788 19.3742C30.054 19.5134 31.968 18.4622 33.1345 17.1086ZM37.3395 29C37.3864 33.8431 41.7726 35.4542 41.8211 35.475C41.7855 35.5886 41.1205 37.7706 39.5107 40.0266C38.1177 41.9753 36.6729 43.9162 34.3965 43.9578C32.1605 43.9978 31.4406 42.6875 28.8826 42.6875C26.3263 42.6875 25.5271 43.9161 23.4109 43.9977C21.2137 44.0761 19.5392 41.8892 18.1364 39.9469C15.2663 35.9741 13.074 28.7201 16.0186 23.8242C17.4812 21.3939 20.0941 19.8525 22.9319 19.8141C25.0886 19.7741 27.1256 21.2047 28.4442 21.2047C29.7628 21.2047 32.2382 19.4847 34.8398 19.7375C35.9286 19.7807 38.9865 20.1582 40.949 22.9117C40.7905 23.0061 37.3006 24.9521 37.3395 29Z" fill="#1A1A1A"/>
</svg>
