<svg width="64" height="64" viewBox="0 0 64 64" fill="none" xmlns="http://www.w3.org/2000/svg">
<g clip-path="url(#clip0_4093_32961)">
<path d="M32 0C36.9636 0 41.6609 1.13082 45.858 3.14781C44.14 4.50697 42.5471 5.81176 41.0629 7.06762C38.2358 6.0401 35.1859 5.48012 32.0054 5.48012C24.6823 5.48012 18.0496 8.44852 13.2545 13.2491C8.45396 18.0496 5.48556 24.6769 5.48556 32C5.48556 39.3231 8.45396 45.9504 13.2545 50.7509C18.055 55.5515 24.6823 58.5199 32.0054 58.5199C39.3286 58.5199 45.9613 55.5515 50.7564 50.7509C55.5569 45.9504 58.5253 39.3231 58.5253 32C58.5253 30.2603 58.3568 28.5532 58.036 26.9059C59.4115 25.1118 60.8196 23.3231 62.2603 21.5508C63.3911 24.8237 64.0054 28.3412 64.0054 32C64.0054 40.8345 60.4227 48.8372 54.6327 54.6273C48.8427 60.4173 40.84 64 32.0054 64C23.1709 64 15.1682 60.4173 9.37819 54.6273C3.58274 48.8372 0 40.8345 0 32C0 23.1655 3.58274 15.1628 9.37275 9.37275C15.1628 3.58274 23.1655 0 32 0ZM17.0928 26.7428L24.8998 26.6395L25.4815 26.7917C27.0581 27.6996 28.5423 28.738 29.9286 29.9123C30.929 30.7605 31.8858 31.6847 32.7938 32.685C35.5936 28.1781 38.5783 24.0408 41.7316 20.2351C45.1838 16.0652 48.8481 12.2813 52.6973 8.82909L53.4584 8.53551H61.9776L60.2596 10.4438C54.9806 16.3099 50.191 22.3717 45.8634 28.6239C41.5359 34.8814 37.665 41.3401 34.2236 47.9891L33.1526 50.055L32.1685 47.9511C30.3527 44.053 28.1781 40.4757 25.5848 37.279C22.9915 34.0822 19.9742 31.2443 16.4567 28.8304L17.0928 26.7428Z" fill="#1DB954"/>
</g>
<defs>
<clipPath id="clip0_4093_32961">
<rect width="64" height="64" fill="white"/>
</clipPath>
</defs>
</svg>
