<svg width="12" height="13" viewBox="0 0 12 13" fill="none" xmlns="http://www.w3.org/2000/svg">
<g clip-path="url(#clip0_1132_6137)">
<path d="M6 0.5C7.65698 0.5 9.15686 1.17138 10.2425 2.25751C11.3281 3.34314 12 4.84352 12 6.5C12 8.15648 11.3286 9.65686 10.2425 10.7425C9.15686 11.8281 7.65648 12.5 6 12.5C4.34302 12.5 2.84314 11.8286 1.75751 10.7425C0.671382 9.65686 0 8.15648 0 6.5C0 4.84352 0.671382 3.34314 1.75751 2.25751C2.84314 1.17138 4.34302 0.5 6 0.5ZM5.50947 3.54117C5.50947 3.35981 5.65648 3.21281 5.83784 3.21281C6.0192 3.21281 6.1662 3.35981 6.1662 3.54117V6.57224L8.44658 7.9241C8.60217 8.01604 8.65421 8.2171 8.56226 8.3732C8.47032 8.5288 8.26926 8.58083 8.11316 8.48889L5.68881 7.05165C5.58222 6.9971 5.50947 6.88646 5.50947 6.75916V3.54117ZM9.77823 2.72177C8.81132 1.75486 7.47563 1.15673 6 1.15673C4.52437 1.15673 3.18868 1.75486 2.22177 2.72177C1.25486 3.68868 0.656731 5.02437 0.656731 6.5C0.656731 7.97563 1.25486 9.31132 2.22177 10.2782C3.18868 11.2451 4.52437 11.8433 6 11.8433C7.47563 11.8433 8.81132 11.2451 9.77823 10.2782C10.7451 9.31132 11.3433 7.97563 11.3433 6.5C11.3433 5.02437 10.7451 3.68868 9.77823 2.72177Z" fill="#EBEEF5"/>
</g>
<defs>
<clipPath id="clip0_1132_6137">
<rect width="12" height="12" fill="white" transform="translate(0 0.5)"/>
</clipPath>
</defs>
</svg>
