<svg width="14" height="14" viewBox="0 0 14 14" fill="none" xmlns="http://www.w3.org/2000/svg">
<path d="M3.5 6.41699C3.5 4.76707 3.5 3.94212 4.01256 3.42956C4.52513 2.91699 5.35008 2.91699 7 2.91699H8.75C10.3999 2.91699 11.2248 2.91699 11.7374 3.42956C12.25 3.94212 12.25 4.76707 12.25 6.41699V9.33366C12.25 10.9836 12.25 11.8085 11.7374 12.3211C11.2248 12.8337 10.3999 12.8337 8.75 12.8337H7C5.35008 12.8337 4.52513 12.8337 4.01256 12.3211C3.5 11.8085 3.5 10.9836 3.5 9.33366V6.41699Z" stroke="#EBEEF5"/>
<path d="M3.5 11.0837C2.5335 11.0837 1.75 10.3002 1.75 9.33366V5.83366C1.75 3.63377 1.75 2.53383 2.43342 1.85041C3.11684 1.16699 4.21678 1.16699 6.41667 1.16699H8.75C9.71652 1.16699 10.5 1.9505 10.5 2.91699" stroke="#EBEEF5"/>
</svg>
