<svg width="21" height="21" viewBox="0 0 21 21" fill="none" xmlns="http://www.w3.org/2000/svg">
<path d="M9.66797 8.83337V12.1667H13.0013" stroke="#1DB954" stroke-width="1.5" stroke-linecap="round" stroke-linejoin="round"/>
<path d="M9.66797 12.1666L10.9471 10.8291C11.4255 10.3694 12.0067 10.0305 12.6425 9.84073C13.2782 9.65094 13.9501 9.61572 14.6022 9.73799C15.2544 9.86026 15.8678 10.1365 16.3917 10.5437C16.9155 10.9509 17.3345 11.4773 17.6138 12.0791" stroke="#1DB954" stroke-width="1.5" stroke-linecap="round" stroke-linejoin="round"/>
<path d="M13.832 2.16663V5.49996" stroke="#1DB954" stroke-width="1.5" stroke-linecap="round" stroke-linejoin="round"/>
<path d="M18.0005 15.5L16.7214 16.8375C16.243 17.2972 15.6617 17.6361 15.026 17.8259C14.3902 18.0157 13.7184 18.0509 13.0662 17.9286C12.4141 17.8064 11.8006 17.5301 11.2768 17.1229C10.753 16.7157 10.334 16.1893 10.0547 15.5875" stroke="#1DB954" stroke-width="1.5" stroke-linecap="round" stroke-linejoin="round"/>
<path d="M18.0013 18.8333V15.5H14.668" stroke="#1DB954" stroke-width="1.5" stroke-linecap="round" stroke-linejoin="round"/>
<path d="M18 7.58337V5.50004C18 5.05801 17.8244 4.63409 17.5118 4.32153C17.1993 4.00897 16.7754 3.83337 16.3333 3.83337H4.66667C4.22464 3.83337 3.80072 4.00897 3.48816 4.32153C3.17559 4.63409 3 5.05801 3 5.50004V17.1667C3 17.6087 3.17559 18.0327 3.48816 18.3452C3.80072 18.6578 4.22464 18.8334 4.66667 18.8334H8.25" stroke="#1DB954" stroke-width="1.5" stroke-linecap="round" stroke-linejoin="round"/>
<path d="M3 8.83337H6.33333" stroke="#1DB954" stroke-width="1.5" stroke-linecap="round" stroke-linejoin="round"/>
<path d="M7.16797 2.16663V5.49996" stroke="#1DB954" stroke-width="1.5" stroke-linecap="round" stroke-linejoin="round"/>
</svg>
