<svg width="21" height="21" viewBox="0 0 21 21" fill="none" xmlns="http://www.w3.org/2000/svg">
<path d="M9.05859 18C9.20488 18.2533 9.41527 18.4637 9.66863 18.61C9.92199 18.7563 10.2094 18.8333 10.5019 18.8333C10.7945 18.8333 11.0819 18.7563 11.3352 18.61C11.5886 18.4637 11.799 18.2533 11.9453 18" stroke="#1DB954" stroke-width="1.5" stroke-linecap="round" stroke-linejoin="round"/>
<path d="M18.8346 7.16663C18.8346 5.24996 18.168 3.58329 17.168 2.16663" stroke="#1DB954" stroke-width="1.5" stroke-linecap="round" stroke-linejoin="round"/>
<path d="M3.21772 13.2716C3.10886 13.3909 3.03702 13.5393 3.01094 13.6987C2.98486 13.8581 3.00566 14.0217 3.07081 14.1695C3.13597 14.3173 3.24267 14.4429 3.37794 14.5312C3.5132 14.6195 3.67121 14.6665 3.83272 14.6666H17.1661C17.3276 14.6667 17.4856 14.6198 17.6209 14.5317C17.7563 14.4436 17.8631 14.3181 17.9285 14.1704C17.9938 14.0227 18.0148 13.8592 17.9889 13.6998C17.9631 13.5404 17.8914 13.3919 17.7827 13.2725C16.6744 12.13 15.4994 10.9158 15.4994 7.16663C15.4994 5.84054 14.9726 4.56877 14.0349 3.63109C13.0972 2.69341 11.8255 2.16663 10.4994 2.16663C9.17331 2.16663 7.90154 2.69341 6.96386 3.63109C6.02618 4.56877 5.49939 5.84054 5.49939 7.16663C5.49939 10.9158 4.32356 12.13 3.21772 13.2716Z" stroke="#1DB954" stroke-width="1.5" stroke-linecap="round" stroke-linejoin="round"/>
<path d="M3.83464 2.16663C2.83464 3.58329 2.16797 5.24996 2.16797 7.16663" stroke="#1DB954" stroke-width="1.5" stroke-linecap="round" stroke-linejoin="round"/>
</svg>
