<svg width="20" height="20" viewBox="0 0 20 20" fill="none" xmlns="http://www.w3.org/2000/svg">
<path d="M5.83464 2.2915H3.95964C3.51761 2.2915 3.09368 2.4671 2.78112 2.77966C2.46856 3.09222 2.29297 3.51614 2.29297 3.95817V5.83317M17.7096 5.83317V3.95817C17.7096 3.51614 17.534 3.09222 17.2215 2.77966C16.9089 2.4671 16.485 2.2915 16.043 2.2915H14.168M14.168 17.7082H16.043C16.485 17.7082 16.9089 17.5326 17.2215 17.22C17.534 16.9075 17.7096 16.4835 17.7096 16.0415V14.1665M2.29297 14.1665V16.0415C2.29297 16.4835 2.46856 16.9075 2.78112 17.22C3.09368 17.5326 3.51761 17.7082 3.95964 17.7082H5.83464M6.78505 8.35942V6.87484M13.2176 8.35942V6.87484M9.01172 11.8228H9.50672C9.76917 11.8228 10.0209 11.7185 10.2065 11.5329C10.392 11.3473 10.4963 11.0956 10.4963 10.8332V6.87484M12.9701 13.4469C12.1634 14.5161 10.9317 14.7915 10.0013 14.7915C9.07089 14.7915 7.83922 14.5165 7.03255 13.4469" stroke="#1DB954" stroke-linecap="round" stroke-linejoin="round"/>
</svg>
