<svg width="91" height="91" viewBox="0 0 91 91" fill="none" xmlns="http://www.w3.org/2000/svg">
<path d="M78.2299 53.3845C78.2783 53.5649 78.2906 53.753 78.2662 53.9381C78.2419 54.1232 78.1812 54.3017 78.0879 54.4634C77.9945 54.6251 77.8702 54.7668 77.722 54.8804C77.5739 54.9941 77.4048 55.0774 77.2245 55.1257L66.944 57.8803L69.6987 68.1607C69.7963 68.525 69.7452 68.9131 69.5566 69.2397C69.3681 69.5663 69.0575 69.8046 68.6932 69.9022C68.329 69.9998 67.9408 69.9486 67.6143 69.7601C67.2877 69.5715 67.0494 69.2609 66.9518 68.8967L63.9815 57.8117L46.9223 47.9627V67.6611L55.0372 75.7759C55.3038 76.0426 55.4536 76.4043 55.4535 76.7813C55.4535 77.1584 55.3037 77.5201 55.037 77.7867C54.7703 78.0533 54.4087 78.2031 54.0316 78.2031C53.6545 78.203 53.2928 78.0532 53.0262 77.7865L45.5004 70.2609L37.9747 77.7865C37.7081 78.0532 37.3464 78.203 36.9693 78.2031C36.5922 78.2031 36.2306 78.0533 35.9639 77.7867C35.6972 77.5201 35.5474 77.1584 35.5474 76.7813C35.5473 76.4042 35.6971 76.0426 35.9637 75.7759L44.0786 67.661V47.9627L27.0194 57.8118L24.0491 68.8967C24.0008 69.0771 23.9174 69.2462 23.8037 69.3943C23.69 69.5424 23.5483 69.6667 23.3866 69.7601C23.2249 69.8535 23.0464 69.9141 22.8613 69.9385C22.6761 69.9628 22.488 69.9505 22.3077 69.9022C22.1273 69.8539 21.9582 69.7705 21.8101 69.6568C21.6619 69.5432 21.5376 69.4014 21.4443 69.2397C21.3509 69.078 21.2903 68.8995 21.2659 68.7144C21.2415 68.5293 21.2539 68.3411 21.3022 68.1608L24.0569 57.8803L13.7764 55.1258C13.5961 55.0774 13.427 54.9941 13.2789 54.8804C13.1308 54.7668 13.0065 54.625 12.9131 54.4634C12.8198 54.3017 12.7592 54.1232 12.7348 53.9381C12.7104 53.753 12.7228 53.5649 12.7711 53.3845C12.8687 53.0203 13.107 52.7098 13.4335 52.5213C13.5952 52.4279 13.7737 52.3673 13.9588 52.3429C14.1439 52.3186 14.332 52.3309 14.5123 52.3792L25.5973 55.3493L42.6569 45.5L25.5973 35.6507L14.5124 38.6207C14.1481 38.7183 13.7601 38.6672 13.4335 38.4787C13.107 38.2902 12.8687 37.9797 12.7711 37.6154C12.6735 37.2512 12.7246 36.8632 12.9131 36.5366C13.1017 36.2101 13.4122 35.9718 13.7764 35.8742L24.0569 33.1197L21.3022 22.8392C21.2046 22.4749 21.2557 22.0868 21.4443 21.7602C21.6328 21.4337 21.9434 21.1954 22.3077 21.0978C22.6719 21.0002 23.06 21.0513 23.3866 21.2399C23.7132 21.4284 23.9515 21.739 24.0491 22.1033L27.0194 33.1882L44.0786 43.0373V23.3389L35.9637 15.224C35.6971 14.9574 35.5473 14.5957 35.5474 14.2186C35.5474 13.8415 35.6972 13.4799 35.9639 13.2132C36.2306 12.9466 36.5922 12.7968 36.9693 12.7969C37.3464 12.7969 37.7081 12.9467 37.9747 13.2134L45.5004 20.739L53.0262 13.2134C53.1582 13.0814 53.315 12.9766 53.4875 12.9052C53.66 12.8337 53.8448 12.7969 54.0316 12.7969C54.2183 12.7969 54.4032 12.8336 54.5757 12.9051C54.7482 12.9765 54.905 13.0812 55.037 13.2132C55.169 13.3453 55.2738 13.502 55.3453 13.6745C55.4167 13.847 55.4535 14.0319 55.4535 14.2186C55.4536 14.4053 55.4168 14.5902 55.3454 14.7627C55.2739 14.9352 55.1692 15.092 55.0372 15.224L46.9223 23.3389V43.0373L63.9815 33.1882L66.9518 22.1032C67.0494 21.739 67.2877 21.4284 67.6143 21.2398C67.9409 21.0513 68.329 21.0002 68.6932 21.0977C69.0575 21.1953 69.3681 21.4336 69.5566 21.7602C69.7452 22.0868 69.7963 22.4749 69.6987 22.8392L66.944 33.1196L77.2245 35.8742C77.5887 35.9718 77.8992 36.21 78.0878 36.5366C78.2763 36.8631 78.3274 37.2512 78.2298 37.6154C78.1322 37.9796 77.8939 38.2902 77.5674 38.4787C77.2408 38.6672 76.8528 38.7183 76.4885 38.6207L65.4036 35.6507L48.344 45.5L65.4036 55.3493L76.4885 52.3792C76.6689 52.3307 76.857 52.3182 77.0422 52.3425C77.2274 52.3668 77.406 52.4273 77.5677 52.5207C77.7295 52.6141 77.8712 52.7384 77.9849 52.8867C78.0985 53.0349 78.1818 53.2041 78.2299 53.3845Z" fill="#C9CACC"/>
</svg>
