<svg width="90" height="90" viewBox="0 0 90 90" fill="none" xmlns="http://www.w3.org/2000/svg">
<g clip-path="url(#clip0_3333_29742)">
<path d="M64.5059 32.0279C67.6411 29.633 69.6693 25.8587 69.6693 21.6176C69.6693 14.3969 63.7949 8.52246 56.5741 8.52246C51.4227 8.52246 46.9582 11.5137 44.8216 15.8495C42.685 11.5137 38.2205 8.52246 33.0691 8.52246C25.8483 8.52246 19.9739 14.3969 19.9739 21.6176C19.9739 25.8585 22.0019 29.633 25.1373 32.0279H9.19434V46.409H11.3775V90.0001H37.6311H40.316H49.3271H52.0119H78.2655V46.4089H80.4487V32.0277H64.5059V32.0279ZM37.6311 87.3148H14.0624V46.4089H37.6309L37.6311 87.3148ZM37.6311 43.7238H11.8792V34.7126H33.0689H37.6309L37.6311 43.7238ZM37.6311 32.0279H33.0691C27.3288 32.0279 22.6588 27.3579 22.6588 21.6176C22.6588 15.8773 27.3288 11.2073 33.0691 11.2073C38.8092 11.2073 43.4792 15.8773 43.4792 21.6176V32.0279H40.3162H37.6311ZM49.3271 43.7238V46.4087V87.3147H40.316V46.4087V43.7238V34.7126H43.479H46.1639H49.3269V43.7238H49.3271ZM49.3271 32.0279H46.164V21.6176C46.164 15.8773 50.834 11.2073 56.5741 11.2073C62.3144 11.2073 66.9844 15.8773 66.9844 21.6176C66.9844 27.3579 62.3144 32.0279 56.5741 32.0279H52.0121H49.3271ZM75.5806 87.3148H52.0121V46.4089H75.5806V87.3148ZM77.7638 43.724H52.0119V34.7128H56.574H77.7636V43.724H77.7638Z" fill="#C9CACC"/>
<path d="M73.9486 75.458H71.2637V78.435H73.9486V75.458Z" fill="#C9CACC"/>
<path d="M71.2634 80.2432V83.5018H66.1777V86.1867H73.9483V80.2432H71.2634Z" fill="#C9CACC"/>
<path d="M18.2864 55.0361H15.6016V67.6213H18.2864V55.0361Z" fill="#C9CACC"/>
<path d="M18.2864 48.8389H15.6016V53.2508H18.2864V48.8389Z" fill="#C9CACC"/>
<path d="M80.6249 17.716L79.292 19.049L77.9455 17.7021L76.0469 19.6008L79.292 22.8462L82.5232 19.6146L80.6249 17.716Z" fill="#C9CACC"/>
<path d="M12.0552 10.6758L10.7226 12.0086L9.3758 10.6621L7.47754 12.5605L10.7226 15.8056L13.9538 12.5743L12.0552 10.6758Z" fill="#C9CACC"/>
<path d="M42.6017 0.0138867L41.2687 1.34666L39.922 0L38.0234 1.89843L41.2687 5.14388L44.5001 1.91232L42.6017 0.0138867Z" fill="#C9CACC"/>
</g>
<defs>
<clipPath id="clip0_3333_29742">
<rect width="90" height="90" fill="white"/>
</clipPath>
</defs>
</svg>
