<svg width="55" height="56" viewBox="0 0 55 56" fill="none" xmlns="http://www.w3.org/2000/svg">
<rect x="0.5" y="1.21094" width="53.6212" height="54.2889" rx="26.8106" fill="#F5F7FA"/>
<rect x="0.5" y="1.21094" width="53.6212" height="54.2889" rx="26.8106" stroke="#D1D5DB"/>
<path fill-rule="evenodd" clip-rule="evenodd" d="M18.4091 28.3553C18.4091 27.3391 18.5779 26.3649 18.8791 25.4511L13.6065 21.4248C12.579 23.5112 12 25.8621 12 28.3553C12 30.8463 12.5782 33.1958 13.6044 35.2808L18.8741 31.2467C18.5757 30.3372 18.4091 29.3665 18.4091 28.3553Z" fill="#FBBC05"/>
<path fill-rule="evenodd" clip-rule="evenodd" d="M27.6666 19.1109C29.8741 19.1109 31.8681 19.8932 33.4347 21.1732L37.9923 16.622C35.2151 14.2043 31.6544 12.7109 27.6666 12.7109C21.4754 12.7109 16.1544 16.2516 13.6064 21.4249L18.879 25.4512C20.0939 21.7634 23.5569 19.1109 27.6666 19.1109Z" fill="#EB4335"/>
<path fill-rule="evenodd" clip-rule="evenodd" d="M27.6666 37.6C23.5569 37.6 20.0939 34.9476 18.879 31.2598L13.6064 35.2854C16.1544 40.4594 21.4754 44 27.6666 44C31.4878 44 35.136 42.6432 37.8741 40.101L32.8693 36.2319C31.4572 37.1215 29.679 37.6 27.6666 37.6Z" fill="#34A853"/>
<path fill-rule="evenodd" clip-rule="evenodd" d="M42.621 28.3552C42.621 27.4307 42.4786 26.4352 42.265 25.5107H27.6665V31.5552H36.0695C35.6494 33.616 34.5057 35.2003 32.8693 36.2315L37.874 40.1006C40.7503 37.4311 42.621 33.4546 42.621 28.3552Z" fill="#4285F4"/>
</svg>
