<svg width="24" height="24" viewBox="0 0 24 24" fill="none" xmlns="http://www.w3.org/2000/svg">
<path d="M21.6385 10.215C21.6385 9.19656 21.2339 8.21984 20.5137 7.49971C19.7936 6.77956 18.8169 6.375 17.7985 6.375H6.27848C5.26004 6.375 4.28339 6.77956 3.56324 7.49971C2.84311 8.21984 2.43848 9.19656 2.43848 10.215" stroke="#1DB954" stroke-width="1.5" stroke-linecap="round" stroke-linejoin="round"/>
<path d="M21.6385 10.2148C15.7921 15.9748 8.28488 15.9748 2.43848 10.2148" stroke="#1DB954" stroke-width="1.5" stroke-linecap="round" stroke-linejoin="round"/>
<path d="M21.6381 10.2148L20.6781 17.8948C20.5349 18.9401 20.0246 19.9002 19.2384 20.6037C18.4523 21.3072 17.4416 21.7082 16.3869 21.7348H7.6125C6.55787 21.7082 5.54714 21.3072 4.76098 20.6037C3.97482 19.9002 3.46454 18.9401 3.32133 17.8948L2.36133 10.2148" stroke="#1DB954" stroke-width="1.5" stroke-linecap="round" stroke-linejoin="round"/>
<path d="M8.20801 6.10562C8.20801 5.08719 8.61257 4.11047 9.33271 3.39033C10.0528 2.67019 11.0296 2.26562 12.048 2.26562C13.0664 2.26562 14.0432 2.67019 14.7633 3.39033C15.4834 4.11047 15.888 5.08719 15.888 6.10562" stroke="#1DB954" stroke-width="1.5" stroke-linecap="round" stroke-linejoin="round"/>
</svg>
