<svg width="46" height="16" viewBox="0 0 46 16" fill="none" xmlns="http://www.w3.org/2000/svg">
<path d="M1.49023 13V3.84033H2.63281V13H1.49023ZM4.8291 13V6.15723H5.93359V7.18555H6.03516C6.20866 6.82161 6.45833 6.5402 6.78418 6.34131C7.11003 6.13818 7.52474 6.03662 8.02832 6.03662C8.7985 6.03662 9.38883 6.25667 9.79932 6.69678C10.214 7.13265 10.4214 7.75684 10.4214 8.56934V13H9.31689V8.83594C9.31689 8.2181 9.18571 7.76107 8.92334 7.46484C8.6652 7.16439 8.26318 7.01416 7.71729 7.01416C7.35335 7.01416 7.03809 7.09245 6.77148 7.24902C6.50488 7.4056 6.29753 7.62777 6.14941 7.91553C6.00553 8.20329 5.93359 8.54818 5.93359 8.9502V13H4.8291ZM14.7695 13.1206C14.2617 13.1206 13.8132 13.0444 13.4238 12.8921C13.0345 12.7355 12.7214 12.5176 12.4844 12.2383C12.2516 11.959 12.1141 11.631 12.0718 11.2544H13.2017C13.2948 11.5379 13.4767 11.7664 13.7476 11.9399C14.0184 12.1134 14.3717 12.2002 14.8076 12.2002C15.1165 12.2002 15.3874 12.1558 15.6201 12.0669C15.8571 11.9738 16.0433 11.849 16.1787 11.6924C16.3141 11.5316 16.3818 11.3475 16.3818 11.1401V11.1274C16.3818 10.8947 16.2887 10.6979 16.1025 10.5371C15.9163 10.3721 15.6117 10.2388 15.1885 10.1372L14.1284 9.8833C13.701 9.78174 13.3498 9.65055 13.0747 9.48975C12.7996 9.32471 12.5965 9.1237 12.4653 8.88672C12.3341 8.64551 12.2686 8.36198 12.2686 8.03613V8.02979C12.2686 7.64893 12.3786 7.30827 12.5986 7.00781C12.8229 6.70736 13.1276 6.47038 13.5127 6.29688C13.8978 6.12337 14.3315 6.03662 14.814 6.03662C15.2922 6.03662 15.7153 6.11279 16.0835 6.26514C16.4559 6.41325 16.7542 6.62484 16.9785 6.8999C17.207 7.17497 17.3467 7.4987 17.3975 7.87109H16.312C16.2401 7.60026 16.075 7.38021 15.8169 7.21094C15.5588 7.04167 15.2223 6.95703 14.8076 6.95703C14.5368 6.95703 14.2956 7.00146 14.084 7.09033C13.8724 7.17497 13.7052 7.29346 13.5825 7.4458C13.4598 7.59814 13.3984 7.77588 13.3984 7.979V7.9917C13.3984 8.14404 13.4386 8.27946 13.519 8.39795C13.5994 8.51644 13.7243 8.62012 13.8936 8.70898C14.0628 8.79785 14.2808 8.87614 14.5474 8.94385L15.6011 9.19775C16.2443 9.35433 16.7225 9.57861 17.0356 9.87061C17.353 10.1626 17.5117 10.554 17.5117 11.0449V11.0576C17.5117 11.4639 17.3911 11.8236 17.1499 12.1367C16.9087 12.4456 16.5807 12.6868 16.166 12.8604C15.7555 13.0339 15.29 13.1206 14.7695 13.1206ZM21.5933 13.0508C20.8908 13.0508 20.3809 12.909 20.0635 12.6255C19.7503 12.342 19.5938 11.8743 19.5938 11.2227V7.07129H18.5146V6.15723H19.5938V4.38623H20.7363V6.15723H22.2344V7.07129H20.7363V10.9434C20.7363 11.3454 20.8125 11.6353 20.9648 11.813C21.1172 11.9865 21.3711 12.0732 21.7266 12.0732C21.8239 12.0732 21.9064 12.0711 21.9741 12.0669C22.0461 12.0627 22.1328 12.0563 22.2344 12.0479V12.9873C22.1286 13.0042 22.0228 13.019 21.917 13.0317C21.8112 13.0444 21.7033 13.0508 21.5933 13.0508ZM25.7637 13.1206C25.332 13.1206 24.9427 13.0381 24.5957 12.873C24.2529 12.708 23.98 12.4731 23.7769 12.1685C23.578 11.8638 23.4785 11.5041 23.4785 11.0894V11.0767C23.4785 10.6704 23.5758 10.3234 23.7705 10.0356C23.9652 9.74365 24.2487 9.51514 24.6211 9.3501C24.9935 9.18506 25.4442 9.08773 25.9731 9.05811L28.4868 8.90576V9.78809L26.1064 9.94043C25.5859 9.97005 25.2051 10.078 24.9639 10.2642C24.7269 10.4504 24.6084 10.7127 24.6084 11.0513V11.064C24.6084 11.411 24.7396 11.6818 25.002 11.8765C25.2643 12.0669 25.5944 12.1621 25.9922 12.1621C26.3688 12.1621 26.7031 12.0881 26.9951 11.9399C27.2871 11.7876 27.5156 11.5824 27.6807 11.3242C27.8499 11.0661 27.9346 10.7741 27.9346 10.4482V8.31543C27.9346 7.89225 27.8055 7.57064 27.5474 7.35059C27.2935 7.1263 26.9105 7.01416 26.3984 7.01416C25.988 7.01416 25.6515 7.08822 25.3892 7.23633C25.1268 7.38021 24.9512 7.58545 24.8623 7.85205L24.856 7.87109H23.7515L23.7578 7.83301C23.8171 7.47331 23.9652 7.16016 24.2021 6.89355C24.4434 6.62272 24.7544 6.41325 25.1353 6.26514C25.5161 6.11279 25.9499 6.03662 26.4365 6.03662C26.9951 6.03662 27.467 6.1276 27.8521 6.30957C28.2414 6.49154 28.5355 6.75391 28.7344 7.09668C28.9375 7.43522 29.0391 7.84147 29.0391 8.31543V13H27.9346V11.9907H27.833C27.6891 12.2319 27.5135 12.4372 27.3062 12.6064C27.103 12.7757 26.8724 12.9048 26.6143 12.9937C26.3561 13.0783 26.0726 13.1206 25.7637 13.1206ZM31.0576 13V6.15723H32.1621V7.18555H32.2637C32.4372 6.82161 32.6868 6.5402 33.0127 6.34131C33.3385 6.13818 33.7533 6.03662 34.2568 6.03662C35.027 6.03662 35.6174 6.25667 36.0278 6.69678C36.4425 7.13265 36.6499 7.75684 36.6499 8.56934V13H35.5454V8.83594C35.5454 8.2181 35.4142 7.76107 35.1519 7.46484C34.8937 7.16439 34.4917 7.01416 33.9458 7.01416C33.5819 7.01416 33.2666 7.09245 33 7.24902C32.7334 7.4056 32.526 7.62777 32.3779 7.91553C32.234 8.20329 32.1621 8.54818 32.1621 8.9502V13H31.0576ZM41.0806 13.0508C40.3781 13.0508 39.8682 12.909 39.5508 12.6255C39.2376 12.342 39.0811 11.8743 39.0811 11.2227V7.07129H38.002V6.15723H39.0811V4.38623H40.2236V6.15723H41.7217V7.07129H40.2236V10.9434C40.2236 11.3454 40.2998 11.6353 40.4521 11.813C40.6045 11.9865 40.8584 12.0732 41.2139 12.0732C41.3112 12.0732 41.3937 12.0711 41.4614 12.0669C41.5334 12.0627 41.6201 12.0563 41.7217 12.0479V12.9873C41.6159 13.0042 41.5101 13.019 41.4043 13.0317C41.2985 13.0444 41.1906 13.0508 41.0806 13.0508Z" fill="url(#paint0_linear_2220_11215)"/>
<defs>
<linearGradient id="paint0_linear_2220_11215" x1="0" y1="8" x2="46" y2="8" gradientUnits="userSpaceOnUse">
<stop stop-color="#FF9E42"/>
<stop offset="1" stop-color="#FFFD94"/>
</linearGradient>
</defs>
</svg>
