<svg width="72" height="64" viewBox="0 0 72 64" fill="none" xmlns="http://www.w3.org/2000/svg">
<path fill-rule="evenodd" clip-rule="evenodd" d="M26.7729 6.07888C31.5238 -2.02211 40.5236 -2.0373 45.2496 6.09545L45.3841 6.34541L69.6891 48.3833C74.3637 56.1721 69.5227 64.0936 60.5132 63.9831V63.9997H10.6967C10.5719 63.9997 10.4499 63.9942 10.3278 63.9845C2.23773 63.8754 -1.68668 56.4967 1.74406 49.2298C1.79814 49.1124 1.85777 48.9992 1.92156 48.8901L1.91601 48.8859L26.7799 6.08302L26.7729 6.07888ZM33.7509 47.8405C34.3417 47.2702 35.0475 46.9857 35.7547 46.9346C36.2262 46.9014 36.6977 46.9746 37.1331 47.139C37.5672 47.3033 37.9665 47.5574 38.2966 47.8861C39.2562 48.8404 39.5058 50.2863 38.94 51.4988C38.567 52.2998 37.9582 52.8384 37.2607 53.1256C36.8405 53.301 36.3871 53.3797 35.935 53.3687C35.4815 53.3577 35.035 53.2555 34.6301 53.0676C33.934 52.7459 33.3404 52.1797 33.0076 51.3828C32.6402 50.5045 32.6928 49.593 33.095 48.7382C33.2545 48.3985 33.4763 48.0739 33.7509 47.8405ZM38.4463 41.3401C38.3354 44.0897 33.6608 44.0925 33.554 41.3387C33.0811 36.6295 31.8719 26.0745 31.9107 21.6483C31.9496 20.2853 33.0853 19.4774 34.5372 19.1694C34.9851 19.0742 35.4774 19.0272 35.9724 19.0286C36.4717 19.03 36.9653 19.0783 37.4132 19.1736C38.9137 19.4912 40.091 20.3322 40.091 21.7215L40.0841 21.8596L38.4463 41.3401Z" fill="#FEC901"/>
</svg>
