<svg width="22" height="22" viewBox="0 0 22 22" fill="none" xmlns="http://www.w3.org/2000/svg">
<path d="M9.41211 19.25C9.57302 19.5287 9.80446 19.7601 10.0831 19.921C10.3618 20.0819 10.678 20.1666 10.9998 20.1666C11.3216 20.1666 11.6377 20.0819 11.9164 19.921C12.1951 19.7601 12.4265 19.5287 12.5874 19.25" stroke="#EBEEF5" stroke-width="1.5" stroke-linecap="round" stroke-linejoin="round"/>
<path d="M20.1673 7.33325C20.1673 5.22492 19.434 3.39159 18.334 1.83325" stroke="#EBEEF5" stroke-width="1.5" stroke-linecap="round" stroke-linejoin="round"/>
<path d="M2.9895 14.0488C2.86975 14.18 2.79072 14.3432 2.76203 14.5186C2.73334 14.6939 2.75622 14.8738 2.82789 15.0364C2.89957 15.1989 3.01694 15.3372 3.16573 15.4343C3.31452 15.5314 3.48833 15.5831 3.666 15.5833H18.3327C18.5103 15.5833 18.6842 15.5318 18.833 15.4348C18.9819 15.3379 19.0995 15.1999 19.1713 15.0374C19.2432 14.8749 19.2663 14.6951 19.2378 14.5197C19.2094 14.3444 19.1306 14.1811 19.011 14.0497C17.7918 12.7929 16.4993 11.4573 16.4993 7.33325C16.4993 5.87456 15.9199 4.47561 14.8884 3.44416C13.857 2.41271 12.458 1.83325 10.9993 1.83325C9.54064 1.83325 8.14169 2.41271 7.11024 3.44416C6.07879 4.47561 5.49933 5.87456 5.49933 7.33325C5.49933 11.4573 4.20591 12.7929 2.9895 14.0488Z" stroke="#EBEEF5" stroke-width="1.5" stroke-linecap="round" stroke-linejoin="round"/>
<path d="M3.66732 1.83325C2.56732 3.39159 1.83398 5.22492 1.83398 7.33325" stroke="#EBEEF5" stroke-width="1.5" stroke-linecap="round" stroke-linejoin="round"/>
</svg>
