<svg width="21" height="21" viewBox="0 0 21 21" fill="none" xmlns="http://www.w3.org/2000/svg">
<path d="M8.83203 11.3333C9.18991 11.8118 9.6465 12.2077 10.1708 12.4941C10.6952 12.7806 11.275 12.9509 11.8709 12.9936C12.4669 13.0363 13.065 12.9503 13.6248 12.7415C14.1846 12.5327 14.693 12.2059 15.1154 11.7833L17.6154 9.28335C18.3744 8.4975 18.7943 7.44499 18.7848 6.35251C18.7753 5.26002 18.3371 4.21497 17.5646 3.44243C16.7921 2.6699 15.747 2.2317 14.6545 2.2222C13.562 2.21271 12.5095 2.63269 11.7237 3.39168L10.2904 4.81668" stroke="#1DB954" stroke-width="1.5" stroke-linecap="round" stroke-linejoin="round"/>
<path d="M12.1678 9.66665C11.8099 9.18821 11.3533 8.79233 10.829 8.50587C10.3047 8.2194 9.72489 8.04905 9.12893 8.00637C8.53298 7.96369 7.93482 8.04968 7.37502 8.2585C6.81522 8.46732 6.30688 8.79409 5.88448 9.21665L3.38448 11.7167C2.62548 12.5025 2.20551 13.555 2.215 14.6475C2.22449 15.74 2.6627 16.785 3.43523 17.5576C4.20777 18.3301 5.25282 18.7683 6.3453 18.7778C7.43779 18.7873 8.4903 18.3673 9.27614 17.6083L10.7011 16.1833" stroke="#1DB954" stroke-width="1.5" stroke-linecap="round" stroke-linejoin="round"/>
</svg>
