<svg width="24" height="24" viewBox="0 0 24 24" fill="none" xmlns="http://www.w3.org/2000/svg">
<path d="M12 12.0011L20.073 7.37612M12 12.0011V21.2511M12 12.0011L7.963 9.68912M20.073 7.37612C19.7929 6.89519 19.3911 6.4965 18.908 6.22012L16.25 4.69712M20.073 7.37612C20.348 7.84812 20.5 8.39112 20.5 8.95612V15.0461C20.4997 15.6021 20.3522 16.1481 20.0726 16.6286C19.793 17.1092 19.3912 17.5071 18.908 17.7821L13.592 20.8281C13.1073 21.1056 12.5585 21.2515 12 21.2511M12 21.2511C11.4415 21.2515 10.8927 21.1056 10.408 20.8281L5.092 17.7821C4.107 17.2181 3.5 16.1761 3.5 15.0461V8.95612C3.49985 8.40105 3.64685 7.85587 3.926 7.37612M7.963 9.68912L3.926 7.37612M7.963 9.68912L16.25 4.69712M16.25 4.69712L13.592 3.17412C13.1074 2.89622 12.5586 2.75 12 2.75C11.4414 2.75 10.8926 2.89622 10.408 3.17412L5.092 6.22012C4.60855 6.49636 4.2064 6.89507 3.926 7.37612" stroke="#1DB954" stroke-width="1.5" stroke-linejoin="round"/>
</svg>
