<svg width="24" height="24" viewBox="0 0 24 24" fill="none" xmlns="http://www.w3.org/2000/svg">
<path d="M6.91532 9.67431H14.6583C15.6957 9.67431 16.579 10.027 17.3083 10.7323C18.039 11.4376 18.4043 12.303 18.4043 13.3283C18.4043 14.3536 18.0393 15.2223 17.3093 15.9343C16.5787 16.6456 15.695 17.0013 14.6583 17.0013H7.90432C7.76165 17.0013 7.64265 17.049 7.54732 17.1443C7.45199 17.2396 7.40432 17.3586 7.40432 17.5013C7.40432 17.644 7.45199 17.763 7.54732 17.8583C7.64265 17.9536 7.76165 18.0013 7.90432 18.0013H14.6583C15.967 18.0013 17.0853 17.5466 18.0133 16.6373C18.9413 15.728 19.4047 14.625 19.4033 13.3283C19.402 12.0316 18.9387 10.9316 18.0133 10.0283C17.0847 9.12565 15.966 8.67431 14.6573 8.67431H6.91432L9.52632 6.06331C9.61965 5.96998 9.66965 5.85498 9.67632 5.71831C9.68298 5.58298 9.63298 5.46198 9.52632 5.35531C9.41965 5.24865 9.30165 5.19531 9.17232 5.19531C9.04298 5.19531 8.92498 5.24865 8.81832 5.35531L5.56532 8.60931C5.47798 8.69598 5.41665 8.78498 5.38132 8.87631C5.34598 8.96765 5.32832 9.06698 5.32832 9.17431C5.32832 9.28165 5.34598 9.38098 5.38132 9.47231C5.41599 9.56365 5.47698 9.65298 5.56432 9.74031L8.81832 12.9933C8.91165 13.0866 9.02632 13.1366 9.16232 13.1433C9.29832 13.15 9.41965 13.1 9.52632 12.9933C9.63298 12.8866 9.68632 12.769 9.68632 12.6403C9.68632 12.5116 9.63298 12.3936 9.52632 12.2863L6.91532 9.67431Z" fill="#EBEEF5"/>
</svg>
