<svg width="137" height="96" viewBox="0 0 137 96" fill="none" xmlns="http://www.w3.org/2000/svg">
<path d="M60.6348 8.52306C44.4281 10.8564 31.2244 22.4754 26.2194 38.8088C25.0754 42.5707 24.9324 43.7135 24.9801 50.1421C24.9801 56.5231 25.1231 57.7612 26.2671 61.5707C28.6028 69.285 33.6078 77.2374 38.9464 81.7612C41.9971 84.3326 46.7161 87.3326 49.2424 88.285C50.3864 88.7135 51.3398 89.1897 51.3398 89.3802C51.3398 89.5231 45.3814 89.6659 38.1361 89.6659H24.8848V90.8564V92.0469H49.1948L73.5048 91.9993L77.7948 90.7135C92.2378 86.2374 102.534 75.9516 106.919 61.5707C108.063 57.7612 108.206 56.5231 108.206 50.3802C108.206 44.7612 108.015 42.7612 107.157 39.6659C105.966 35.1421 103.63 30.0469 101.008 26.2374C97.1951 20.6183 89.9021 14.4754 84.3728 12.1897L81.7034 11.0945L95.0024 10.8564L108.301 10.6183V9.42783V8.23735L85.8981 8.18973C73.5524 8.14211 62.2078 8.28497 60.6348 8.52306ZM75.8404 12.0469C87.7094 15.1897 97.0521 22.9516 102.057 33.8088C104.774 39.6183 105.394 42.6659 105.394 50.1421C105.441 55.7135 105.251 57.4278 104.345 60.5231C100.484 73.9516 90.1404 84.285 76.7461 88.0945C71.4074 89.6183 61.7788 89.6183 56.4401 88.0945C49.6238 86.1421 43.5224 82.5231 38.6604 77.4278C33.8938 72.4754 30.4618 66.5231 28.7458 60.1421C27.4588 55.5231 27.2204 47.5231 28.1738 42.7612C31.4628 26.7135 43.5224 14.7612 59.6814 11.5231C63.7808 10.7135 71.8841 10.9993 75.8404 12.0469Z" fill="#C9CACC"/>
<path d="M59.4906 26.0926C57.1549 26.4736 55.6296 27.9022 55.6296 29.7593C55.6296 30.4736 55.0576 31.3783 54.1996 32.1403C53.1032 32.9974 52.7696 33.7117 52.7696 34.9498C52.7696 35.8545 52.5789 36.5688 52.2929 36.5688C51.4826 36.5688 50.2432 38.9498 50.2909 40.426C50.2909 41.3307 49.9096 42.2355 49.1469 42.9974C47.9076 44.2355 47.5739 46.9022 48.5749 47.9022C49.0039 48.3307 48.7656 48.8545 47.5262 50.1403C46.0009 51.7117 45.8579 51.7593 45.0476 50.9974C44.1896 50.2355 43.9989 50.3783 40.6146 53.7117C38.6602 55.6641 37.0396 57.4736 37.0396 57.7593C37.0396 58.5688 53.4369 74.6641 54.2472 74.6641C54.9622 74.6641 61.3496 68.426 61.3496 67.7117C61.3496 67.5212 60.9682 66.9498 60.5392 66.4736C59.7766 65.6164 59.8719 65.4736 61.8262 63.4736C63.9235 61.3307 63.9235 61.3307 66.7836 61.5212C69.3099 61.7117 69.7865 61.9022 71.5025 63.6641C73.4092 65.5688 73.4569 65.5688 72.5512 66.5688C71.6455 67.5688 71.6932 67.5688 75.1729 71.0926C77.1272 73.045 78.9385 74.6641 79.2245 74.6641C80.0349 74.6641 96.1462 58.2831 96.1462 57.4736C96.1462 56.7593 89.9019 50.3783 89.1869 50.3783C88.9962 50.3783 88.4719 50.7117 87.9952 51.1403C87.2326 51.8545 87.0419 51.7593 85.7072 50.2831C84.1342 48.5688 83.9912 48.1879 84.7062 47.7593C84.9922 47.6164 85.1829 46.6164 85.1829 45.6164C85.1829 44.1879 84.8969 43.5688 83.7529 42.6164C82.8949 41.8545 82.3229 40.9498 82.3229 40.2355C82.3229 39.4736 81.7509 38.5688 80.8929 37.8545C80.1302 37.1879 79.4629 36.2831 79.4629 35.9022C79.4629 34.6164 78.4142 32.8069 77.4609 32.5212C76.9842 32.3307 76.6029 31.8069 76.6029 31.2831C76.6029 29.7117 75.2206 27.5688 74.0765 27.3307C65.2105 25.5688 63.5422 25.426 59.4906 26.0926ZM64.3526 32.7117C66.5929 35.0926 66.9265 36.5688 65.2582 36.5688C64.2096 36.5688 58.4895 30.8545 58.4895 29.8545C58.4895 27.7117 60.6822 28.7593 64.3526 32.7117ZM67.4509 28.9022L68.5949 29.1879L67.5939 30.0926C66.6406 30.9498 66.5929 30.9498 65.1629 29.7117L63.6376 28.4736L65.0199 28.5212C65.7349 28.5688 66.8789 28.7117 67.4509 28.9022ZM73.7429 30.8069C73.7429 31.2831 73.0755 32.2355 72.3129 32.9974C70.6445 34.6164 70.5492 36.2355 72.1699 36.4736C72.8372 36.5688 73.4092 36.2831 73.7429 35.6164C74.0765 34.9498 74.6486 34.6641 75.3159 34.7593C76.8889 34.9974 76.8412 36.426 75.2206 37.8069C73.4092 39.2831 73.1709 41.3307 74.7915 41.3307C75.3635 41.3307 76.3169 40.8545 76.8889 40.3307C78.1282 39.1879 79.4629 39.426 79.4629 40.7593C79.4629 41.2355 78.8432 42.2355 78.0329 42.9974C76.4599 44.5212 76.1739 45.8545 77.4132 46.2831C77.8899 46.4736 78.6525 46.1403 79.5105 45.3307C80.9405 43.9498 82.3229 44.045 82.3229 45.5212C82.3229 45.9974 79.5106 49.1879 75.9356 52.7117L69.5482 59.045L66.4022 58.7117L63.3039 58.3783L60.4916 61.045L57.7269 63.6641L52.7696 58.7117L47.8122 53.7117L49.3852 52.0926C50.8152 50.6164 51.1012 50.5212 52.3406 50.9498C54.1519 51.5688 56.1539 50.6164 57.0119 48.6641C57.3455 47.8069 58.2036 46.9974 59.0139 46.7117C59.8719 46.3783 60.5869 45.6164 60.8729 44.8069C61.2065 43.9498 61.9216 43.2355 62.8272 42.9022C63.7329 42.5212 64.4956 41.8069 64.8292 40.9022C65.1152 40.0926 65.6396 39.426 66.0209 39.426C66.3545 39.426 67.2125 38.8545 67.8799 38.1879C68.9285 37.1403 69.0715 36.7117 68.8332 34.9022C68.5472 32.9498 68.6425 32.7593 70.4062 31.1403C72.3129 29.426 73.7429 29.2831 73.7429 30.8069ZM59.7766 36.1879C62.3505 38.7117 62.8749 40.045 61.5402 40.5688C61.0635 40.7593 59.9195 39.9974 58.2036 38.3783C55.8202 36.1403 55.1529 34.8069 55.9632 34.045C56.6306 33.3783 57.3456 33.8069 59.7766 36.1879ZM56.6782 40.7117C58.5849 42.5688 59.0139 44.045 57.7269 44.5212C56.6782 44.9022 52.5312 40.7593 52.9125 39.7117C53.3892 38.4736 54.7716 38.8545 56.6782 40.7117ZM53.5799 45.2355C54.8192 46.426 55.0099 47.9022 53.9135 48.3307C53.0555 48.6641 50.8629 46.7593 50.8629 45.6164C50.8629 43.9022 52.0069 43.7593 53.5799 45.2355ZM80.3685 58.7593L75.4112 63.7117L73.7429 62.045L72.0746 60.3783L77.0795 55.3783L82.0369 50.426L83.6576 52.0926L85.3259 53.8069L80.3685 58.7593ZM85.8979 64.3783L79.2245 71.1879L77.3179 69.3307L75.4112 67.5212L82.2752 60.6641L89.0915 53.8545L90.8075 55.7117L92.5712 57.5688L85.8979 64.3783ZM50.9582 60.7117C54.5809 64.3307 57.5362 67.426 57.5362 67.5688C57.5362 67.7593 56.7259 68.7117 55.7726 69.6641L54.0566 71.3783L47.1926 64.5688L40.3762 57.8069L42.1399 55.9974C43.0932 54.9974 43.9989 54.1879 44.1419 54.1879C44.2849 54.1879 47.3832 57.1403 50.9582 60.7117Z" fill="#C9CACC"/>
</svg>
