<svg width="63" height="69" viewBox="0 0 63 69" fill="none" xmlns="http://www.w3.org/2000/svg">
<g clip-path="url(#clip0_877_17233)">
<path fill-rule="evenodd" clip-rule="evenodd" d="M31.3916 0C43.1385 7.42053 53.7505 10.9312 62.8581 10.1012C64.4487 42.1631 52.5678 61.0977 31.5133 69C11.1812 61.6036 -0.845075 43.4838 0.0468681 9.61497C10.7383 10.1726 21.2276 7.86919 31.3916 0ZM19.0357 37.4957C18.3709 36.9286 18.2931 35.9313 18.8616 35.2682C19.4313 34.605 20.432 34.5281 21.0968 35.0947L27.5731 40.6397L41.7608 25.0945C42.3508 24.4487 43.3543 24.4016 44.0028 24.9889C44.6502 25.5763 44.6975 26.5763 44.1082 27.2227L28.8837 43.9044L28.8826 43.9033C28.3079 44.5327 27.3325 44.5973 26.6795 44.0403L19.0357 37.4957ZM31.404 3.96155C41.802 10.5297 51.1958 13.6377 59.2577 12.9027C60.6652 41.2826 50.1489 58.0436 31.5128 65.0379C13.515 58.4911 2.86863 42.4529 3.65859 12.472C13.1229 12.9661 22.4074 10.9272 31.404 3.96155Z" fill="#C9CACC"/>
</g>
<defs>
<clipPath id="clip0_877_17233">
<rect width="63" height="69" fill="white"/>
</clipPath>
</defs>
</svg>
