<svg width="19" height="18" viewBox="0 0 19 18" fill="none" xmlns="http://www.w3.org/2000/svg">
<path d="M8.20117 15.75C8.33283 15.978 8.52218 16.1674 8.75021 16.299C8.97823 16.4306 9.23688 16.4999 9.50017 16.4999C9.76346 16.4999 10.0221 16.4306 10.2501 16.299C10.4782 16.1674 10.6675 15.978 10.7992 15.75" stroke="#1DB954" stroke-width="0.833333" stroke-linecap="round" stroke-linejoin="round"/>
<path d="M17 6C17 4.275 16.4 2.775 15.5 1.5" stroke="#1DB954" stroke-width="0.833333" stroke-linecap="round" stroke-linejoin="round"/>
<path d="M2.94693 11.4945C2.84895 11.6019 2.78429 11.7354 2.76082 11.8789C2.73735 12.0223 2.75607 12.1695 2.81471 12.3025C2.87335 12.4356 2.96938 12.5487 3.09112 12.6281C3.21286 12.7075 3.35506 12.7499 3.50043 12.75H15.5004C15.6458 12.7501 15.788 12.7079 15.9098 12.6286C16.0316 12.5493 16.1278 12.4363 16.1866 12.3034C16.2454 12.1705 16.2643 12.0233 16.241 11.8798C16.2177 11.7364 16.1532 11.6028 16.0554 11.4952C15.0579 10.467 14.0004 9.37425 14.0004 6C14.0004 4.80653 13.5263 3.66193 12.6824 2.81802C11.8385 1.97411 10.6939 1.5 9.50043 1.5C8.30696 1.5 7.16236 1.97411 6.31845 2.81802C5.47453 3.66193 5.00043 4.80653 5.00043 6C5.00043 9.37425 3.94218 10.467 2.94693 11.4945Z" stroke="#1DB954" stroke-width="0.833333" stroke-linecap="round" stroke-linejoin="round"/>
<path d="M3.5 1.5C2.6 2.775 2 4.275 2 6" stroke="#1DB954" stroke-width="0.833333" stroke-linecap="round" stroke-linejoin="round"/>
</svg>
