<svg width="16" height="16" viewBox="0 0 16 16" fill="none" xmlns="http://www.w3.org/2000/svg">
<path opacity="0.5" d="M6.39458 2.13322C6.23225 2.27156 6.15108 2.34073 6.06438 2.39884C5.86565 2.53204 5.64246 2.62448 5.40774 2.67082C5.30535 2.69104 5.19903 2.69952 4.9864 2.71649C4.45214 2.75912 4.18501 2.78044 3.96215 2.85916C3.44668 3.04123 3.04123 3.44668 2.85916 3.96215C2.78044 4.18501 2.75913 4.45214 2.7165 4.98639C2.69953 5.19902 2.69104 5.30535 2.67082 5.40774C2.62448 5.64246 2.53204 5.86565 2.39884 6.06438C2.34073 6.15108 2.27155 6.23226 2.1332 6.3946C1.78557 6.80254 1.61174 7.00648 1.50982 7.21974C1.27407 7.71301 1.27407 8.28634 1.50982 8.77961C1.61175 8.99288 1.78556 9.19681 2.13319 9.60474C2.27152 9.76708 2.34074 9.84828 2.39884 9.93494C2.53204 10.1337 2.62448 10.3569 2.67082 10.5916C2.69104 10.694 2.69952 10.8003 2.71649 11.0129C2.75912 11.5472 2.78044 11.8143 2.85916 12.0372C3.04123 12.5527 3.44668 12.9581 3.96215 13.1402C4.185 13.2189 4.45212 13.2402 4.98634 13.2829C5.19898 13.2998 5.30535 13.3083 5.40774 13.3285C5.64246 13.3749 5.86565 13.4673 6.06438 13.6005C6.15108 13.6586 6.23226 13.7278 6.39461 13.8661C6.80254 14.2138 7.00648 14.3876 7.21974 14.4895C7.71301 14.7253 8.28634 14.7253 8.77961 14.4895C8.99288 14.3876 9.19681 14.2138 9.60474 13.8661C9.76708 13.7278 9.84828 13.6586 9.93494 13.6005C10.1337 13.4673 10.3569 13.3749 10.5916 13.3285C10.694 13.3083 10.8003 13.2998 11.0129 13.2829C11.5471 13.2402 11.8143 13.2189 12.0372 13.1402C12.5527 12.9581 12.9581 12.5527 13.1402 12.0372C13.2189 11.8143 13.2402 11.5472 13.2829 11.013C13.2998 10.8004 13.3083 10.694 13.3285 10.5916C13.3749 10.3569 13.4673 10.1337 13.6005 9.93494C13.6586 9.84828 13.7278 9.76708 13.8661 9.60474C14.2138 9.19681 14.3876 8.99288 14.4895 8.77961C14.7253 8.28634 14.7253 7.71301 14.4895 7.21974C14.3876 7.00648 14.2138 6.80254 13.8661 6.39461C13.7278 6.23226 13.6586 6.15108 13.6005 6.06438C13.4673 5.86565 13.3749 5.64246 13.3285 5.40774C13.3083 5.30535 13.2998 5.19903 13.2829 4.9864C13.2402 4.45218 13.2189 4.185 13.1402 3.96215C12.9581 3.44668 12.5527 3.04123 12.0372 2.85916C11.8143 2.78044 11.5472 2.75913 11.0129 2.7165C10.8003 2.69953 10.694 2.69104 10.5916 2.67082C10.3569 2.62448 10.1337 2.53204 9.93494 2.39884C9.84828 2.34073 9.76708 2.27155 9.60474 2.13319C9.19681 1.78556 8.99288 1.61175 8.77961 1.50982C8.28634 1.27407 7.71301 1.27407 7.21974 1.50982C7.00648 1.61174 6.80252 1.78559 6.39458 2.13322Z" fill="#22F07D"/>
<path d="M10.9161 6.57565C11.1279 6.36376 11.1279 6.02022 10.9161 5.80833C10.7041 5.59644 10.3606 5.59644 10.1487 5.80833L6.91519 9.04186L5.85201 7.97859C5.64012 7.76673 5.29658 7.76673 5.0847 7.97859C4.87281 8.19053 4.87281 8.53406 5.0847 8.74593L6.53156 10.1928C6.74346 10.4047 7.08699 10.4047 7.29886 10.1928L10.9161 6.57565Z" fill="#22F07D"/>
</svg>
